<?xml version="1.0" encoding="UTF-8" standalone="no"?>
<!-- Created with Inkscape (http://www.inkscape.org/) -->

<svg
   xmlns:dc="http://purl.org/dc/elements/1.1/"
   xmlns:cc="http://creativecommons.org/ns#"
   xmlns:rdf="http://www.w3.org/1999/02/22-rdf-syntax-ns#"
   xmlns:svg="http://www.w3.org/2000/svg"
   xmlns="http://www.w3.org/2000/svg"
   xmlns:xlink="http://www.w3.org/1999/xlink"
   xmlns:sodipodi="http://sodipodi.sourceforge.net/DTD/sodipodi-0.dtd"
   xmlns:inkscape="http://www.inkscape.org/namespaces/inkscape"
   id="svg2985"
   version="1.1"
   inkscape:version="0.48.4 r9939"
   width="1280"
   height="720"
   sodipodi:docname="Luna_winking_S3E06.svg"
   inkscape:export-filename="C:\Users\Sharpe\Documents\Game Dev\EK\Project Resource\2D Art\Menus\Luna_winking_svg.png"
   inkscape:export-xdpi="96.046875"
   inkscape:export-ydpi="96.046875">
  <metadata
     id="metadata2991">
    <rdf:RDF>
      <cc:Work
         rdf:about="">
        <dc:format>image/svg+xml</dc:format>
        <dc:type
           rdf:resource="http://purl.org/dc/dcmitype/StillImage" />
        <dc:title></dc:title>
      </cc:Work>
    </rdf:RDF>
  </metadata>
  <defs
     id="defs2989">
    <inkscape:path-effect
       effect="skeletal"
       id="path-effect3857"
       is_visible="true"
       pattern="M 0,5 C 0,2.24 2.24,0 5,0 7.76,0 10,2.24 10,5 10,7.76 7.76,10 5,10 2.24,10 0,7.76 0,5 z"
       copytype="single_stretched"
       prop_scale="1"
       scale_y_rel="false"
       spacing="0"
       normal_offset="0"
       tang_offset="0"
       prop_units="false"
       vertical_pattern="false"
       fuse_tolerance="0" />
    <inkscape:path-effect
       effect="skeletal"
       id="path-effect3849"
       is_visible="true"
       pattern="M 0,5 C 0,2.24 2.24,0 5,0 7.76,0 10,2.24 10,5 10,7.76 7.76,10 5,10 2.24,10 0,7.76 0,5 z"
       copytype="single_stretched"
       prop_scale="1"
       scale_y_rel="false"
       spacing="0"
       normal_offset="0"
       tang_offset="0"
       prop_units="false"
       vertical_pattern="false"
       fuse_tolerance="0" />
    <inkscape:path-effect
       effect="skeletal"
       id="path-effect3845"
       is_visible="true"
       pattern="M 0,5 C 0,2.24 2.24,0 5,0 7.76,0 10,2.24 10,5 10,7.76 7.76,10 5,10 2.24,10 0,7.76 0,5 z"
       copytype="single_stretched"
       prop_scale="1"
       scale_y_rel="false"
       spacing="0"
       normal_offset="0"
       tang_offset="0"
       prop_units="false"
       vertical_pattern="false"
       fuse_tolerance="0" />
    <inkscape:path-effect
       effect="skeletal"
       id="path-effect3841"
       is_visible="true"
       pattern="M 0,5 10,10 10,0 z"
       copytype="single_stretched"
       prop_scale="1"
       scale_y_rel="false"
       spacing="0"
       normal_offset="0"
       tang_offset="0"
       prop_units="false"
       vertical_pattern="false"
       fuse_tolerance="0" />
    <linearGradient
       id="linearGradient3046">
      <stop
         style="stop-color:#0e7298;stop-opacity:1"
         offset="0"
         id="stop3048" />
      <stop
         style="stop-color:#0dcab6;stop-opacity:1"
         offset="1"
         id="stop3050" />
    </linearGradient>
    <clipPath
       clipPathUnits="userSpaceOnUse"
       id="clipPath3036">
      <path
         sodipodi:nodetypes="csccccc"
         inkscape:connector-curvature="0"
         id="path3038"
         d="M 688.04085,462.34493 C 670.87477,440.08716 666.49902,414.74346 664.19,391.10678 c -2.43626,-24.9392 2.50964,-54.49532 9.58861,-61.01825 l 0,0 15.54543,-4.53337 c 15.30918,60.94047 9.06104,80.28583 8.25375,115.56285 -1.34307,8.44589 -3.69459,16.13913 -9.53694,21.22692 z"
         style="fill:#ffffff;stroke:none" />
    </clipPath>
    <clipPath
       clipPathUnits="userSpaceOnUse"
       id="clipPath3042">
      <path
         sodipodi:nodetypes="csccccc"
         inkscape:connector-curvature="0"
         id="path3044"
         d="m 679.80256,475.87704 c -27.01959,-36.23668 -32.05946,-75.96955 -33.7549,-112.84776 -1.78886,-38.91041 9.37462,-84.23529 21.99186,-93.63533 l 0,0 26.78779,-5.46279 c 20.7347,98.55817 8.71669,129.93337 3.14187,179.99674 -3.07091,12.95902 -7.78125,24.64957 -18.16662,31.94914 z"
         style="fill:#ffffff;stroke:none" />
    </clipPath>
    <linearGradient
       inkscape:collect="always"
       xlink:href="#linearGradient3046"
       id="linearGradient3052"
       x1="691.93201"
       y1="373.1962"
       x2="693.97498"
       y2="447.87527"
       gradientUnits="userSpaceOnUse" />
  </defs>
  <sodipodi:namedview
     pagecolor="#ffffff"
     bordercolor="#666666"
     borderopacity="1"
     objecttolerance="10"
     gridtolerance="10"
     guidetolerance="10"
     inkscape:pageopacity="0"
     inkscape:pageshadow="2"
     inkscape:window-width="1366"
     inkscape:window-height="706"
     id="namedview2987"
     showgrid="false"
     inkscape:zoom="0.46092362"
     inkscape:cx="466.24217"
     inkscape:cy="349.82607"
     inkscape:window-x="-8"
     inkscape:window-y="-8"
     inkscape:window-maximized="1"
     inkscape:current-layer="layer2" />
  <g
     inkscape:groupmode="layer"
     id="layer1"
     inkscape:label="Picture"
     style="display:none">
    <image
       width="1280"
       height="720"
       xlink:href="file:///C:/Users/Sharpe/Documents/Game%20Dev/EK/Project%20Resource/2D%20Art/Menus/Luna_winking_S3E06.png"
       id="image2993"
       x="0"
       y="0" />
    <image
       y="-9.1776209"
       x="-512.35168"
       id="image3032"
       xlink:href="file:///C:/Users/Sharpe/Documents/Game%20Dev/EK/Project%20Resource/2D%20Art/Menus/Luna_winking_S3E06.png"
       height="276.15213"
       width="490.9371" />
  </g>
  <g
     inkscape:groupmode="layer"
     id="layer2"
     inkscape:label="Vector"
     style="display:inline">
    <rect
       style="fill:#225ade;fill-opacity:1;stroke:none"
       id="rect3963"
       width="170.66956"
       height="39.503288"
       x="714.89447"
       y="-12.153213" />
    <path
       style="fill:#7e73e5;fill-opacity:1;stroke:none"
       d="m 703.77221,-2.1815089 15.53284,-0.383527 11.69758,18.4092999 25.50455,-17.8340093 14.57403,-0.5752907 14.7658,11.1222856 -0.76706,8.2458324 -83.6089,12.656394 z"
       id="path3961"
       inkscape:connector-curvature="0"
       sodipodi:nodetypes="ccccccccc" />
    <path
       style="fill:#5851e1;fill-opacity:0.75;stroke:#985dff;stroke-width:14.50000000000000000;stroke-linecap:butt;stroke-linejoin:miter;stroke-miterlimit:4;stroke-opacity:1;stroke-dasharray:none"
       d="M 450.35779,5.051186 C 184.76431,50.954935 144.14942,199.97694 180.95514,292.40978 c 8.89049,22.32731 20.20953,46.52274 31.17218,69.54502 53.2628,109.67551 24.74961,156.75119 -109.27771,218.56386 -131.375013,60.58944 -196.89045,120.3032 -149.643256,163.90812 l 963.845966,0 c 63.74762,-297.82708 95.80298,-535.3789 -9.22061,-764.410326 l -453.29636,0 z"
       id="path3837"
       inkscape:connector-curvature="0"
       sodipodi:nodetypes="cscsccccc" />
    <path
       style="fill:#000000;stroke:none"
       d="m 599.09897,1.9811697 c 6.17584,10.3662613 27.66133,30.6052133 36.31877,-5.4638854 8.17139,-34.0440913 69.42888,3.53545526 69.42888,3.53545526 l 8.99934,18.96289644 c 0,0 -78.57886,14.830025 -114.25481,33.150111 -3.50059,-18.084339 -0.49218,-50.1845773 -0.49218,-50.1845773 z"
       id="path3832"
       inkscape:connector-curvature="0"
       sodipodi:nodetypes="cscccc" />
    <path
       style="fill:#2359e1;fill-opacity:1;stroke:none"
       d="M 523.99849,74.520887 C 436.9676,87.212892 293.72925,165.17807 300.98183,283.0324 c 2.42727,39.44317 15.1071,74.59343 22.60658,107.94135 18.33355,81.52376 25.83164,120.48844 -12.6011,157.62653 -58.96269,56.97647 -158.9802,86.18197 -188.45164,110.62622 -22.718345,18.84309 -44.570496,53.52093 -42.757353,97.03637 l 745.589793,0 0,-691.929124 z"
       id="path3830"
       inkscape:connector-curvature="0"
       sodipodi:nodetypes="cssssc" />
    <path
       style="fill:#374493;fill-opacity:1;stroke:none"
       d="M 413.20794,-44.55142 527.59884,132.28757 620.97917,70.423107 461.64899,-72.565518 z"
       id="path3056"
       inkscape:connector-curvature="0" />
    <path
       style="fill:#374493;fill-opacity:1;stroke:none"
       d="m 795.77558,568.9769 c 0,0 -60.72607,145.21452 -64.42244,200.66006 l 401.32016,0 -65.4786,-69.17491 -13.2013,-80.79208 c 0,0 -9.5049,-67.59076 -4.7525,-80.26403 4.7525,-12.67327 32.2112,-157.35974 30.099,-208.05281 -2.1122,-50.69306 -12.6732,-191.15511 -61.2541,-226.0066 C 969.50495,70.495049 915.64357,19.801979 822.70627,52.541253 729.76898,85.280527 543.89439,179.27393 557.62376,297.55776 c 13.72938,118.28382 14.78548,120.39604 40.13202,165.80858 15.84158,21.65016 33.26732,29.57095 29.57095,37.49175 -3.69637,7.92079 -25.87458,31.15511 -22.70627,40.13201 3.16832,8.9769 52.27723,87.65676 128.31683,72.34323 z"
       id="path3791"
       inkscape:connector-curvature="0" />
    <path
       style="fill:#ffffff;stroke:none"
       d="m 629.2143,485.62653 c -32.98388,-34.19751 -46.19358,-76.86288 -55.66961,-117.08981 -9.99821,-42.44367 -9.2757,-94.669 0.49314,-107.66574 l 0,0 23.84256,-11.64274 c 39.44699,101.41546 34.1418,136.33811 41.45804,197.42041 -0.0937,14.90654 -1.98963,28.7618 -10.12413,38.97788 z"
       id="path3842"
       inkscape:connector-curvature="0"
       sodipodi:nodetypes="csccccc" />
    <path
       transform="matrix(1.6049257,-0.24564618,0.24412159,1.7258826,-587.90852,-143.31193)"
       d="m 714.80984,396.59955 a 21.655481,56.375839 0 1 1 -43.31096,0 21.655481,56.375839 0 1 1 43.31096,0 z"
       sodipodi:ry="56.375839"
       sodipodi:rx="21.655481"
       sodipodi:cy="396.59955"
       sodipodi:cx="693.15436"
       id="path3846"
       style="fill:url(#linearGradient3052);fill-opacity:1;stroke:none"
       sodipodi:type="arc"
       clip-path="url(#clipPath3036)" />
    <path
       style="fill:#80a5ff;fill-opacity:1;stroke:none"
       d="m 579.35299,258.21339 22.01997,-11.76929 c 0,0 17.86641,44.74158 23.95142,89.84225 -12.44055,-24.43384 -22.27513,-50.95245 -39.01566,-71.94631 z"
       id="path3030"
       inkscape:connector-curvature="0"
       sodipodi:nodetypes="ccccc" />
    <path
       style="fill:none;stroke:#0d112f;stroke-width:14.5;stroke-linecap:butt;stroke-linejoin:miter;stroke-miterlimit:4;stroke-opacity:1;stroke-dasharray:none"
       d="m 1052.2122,517.62277 c -12.0917,38.92971 6.2449,144.62505 12.6953,181.8408 13.4999,13.40427 24.1441,22.52512 35.8454,33.23168"
       id="path3785"
       inkscape:connector-curvature="0"
       sodipodi:nodetypes="ccc" />
    <path
       style="fill:#225ade;fill-opacity:1;stroke:#9c5dff;stroke-width:8.80000019;stroke-linecap:butt;stroke-linejoin:miter;stroke-miterlimit:4;stroke-opacity:1;stroke-dasharray:none"
       d="m 1030.7972,96.906143 c 0,0 0.6412,-33.334237 -55.12966,-85.899768 l -62.18118,44.231972 74.361,89.746033 z"
       id="path3060"
       inkscape:connector-curvature="0"
       sodipodi:nodetypes="ccccc" />
    <g
       id="g3838">
      <path
         inkscape:connector-curvature="0"
         id="path3836"
         d="m 1066.0703,545.35886 c 0,0 38.4716,-125.53913 36.4468,-225.26176 -2.0248,-99.72262 -38.4717,-204.5073 -87.0675,-234.879671 -48.59576,-30.372372 0,64.794391 0,64.794391 0,0 31.3848,41.50891 10.1242,172.11011 -6.0745,50.62062 6.0744,123.51431 17.211,182.23423 11.1365,58.71992 23.2855,41.0027 23.2855,41.0027 z"
         style="fill:#225ade;fill-opacity:1;stroke:none" />
      <path
         sodipodi:nodetypes="cssccsscscccscc"
         inkscape:connector-curvature="0"
         id="path3834"
         d="m 1058.4772,590.41121 c -0.5062,-2.02482 -45.0524,-200.45765 -45.0524,-220.19969 0,-19.74204 5.5683,-78.96817 12.6552,-116.93363 7.0868,-37.96547 -7.5931,-90.61091 -17.211,-103.77227 l 9.1117,-10.12413 c 0,0 25.3103,31.89099 24.2979,80.99299 -1.0125,49.102 -18.565,120.92306 -14.2697,150.27429 4.2954,29.35123 32.9993,168.12941 32.9993,168.12941 0,0 36.4415,-120.1652 35.0097,-191.75357 -1.4318,-71.58837 0,-166.8009 -73.0201,-246.97987 l -29.35127,-25.055926 25.41387,2.505592 c 0,0 34.8609,17.34094 67.2581,91.247044 32.3972,73.90611 25.3103,188.81491 25.3103,188.81491 0,0 -1.3176,107.29102 -53.1516,232.85485 z"
         style="fill:#9c5dff;fill-opacity:1;stroke:none" />
    </g>
    <path
       style="fill:none;stroke:#0c102f;stroke-width:9.39999962;stroke-linecap:butt;stroke-linejoin:miter;stroke-miterlimit:4;stroke-opacity:1;stroke-dasharray:none"
       d="m 461.66005,19.410623 c 0,0 22.27307,-19.23583556 28.85376,-55.429579"
       id="path3823"
       inkscape:connector-curvature="0"
       sodipodi:nodetypes="cc" />
    <path
       style="fill:none;stroke:#0c102f;stroke-width:9.39999962;stroke-linecap:butt;stroke-linejoin:miter;stroke-miterlimit:4;stroke-opacity:1;stroke-dasharray:none"
       d="M 528.98548,-8.4307182 C 526.0956,-5.9562871 542.55283,46.169453 502.15655,79.64916"
       id="path3825"
       inkscape:connector-curvature="0"
       sodipodi:nodetypes="cc" />
    <path
       sodipodi:nodetypes="cc"
       inkscape:connector-curvature="0"
       id="path3827"
       d="m 578.9435,33.340347 c -3.0201,2.313695 10.57953,55.256903 -31.5768,86.491393"
       style="fill:none;stroke:#0c102f;stroke-width:9.39999962;stroke-linecap:butt;stroke-linejoin:miter;stroke-miterlimit:4;stroke-opacity:1;stroke-dasharray:none" />
    <path
       style="fill:none;stroke:#0c102f;stroke-width:14.5;stroke-linecap:butt;stroke-linejoin:miter;stroke-miterlimit:4;stroke-opacity:1;stroke-dasharray:none"
       d="M 522.4048,121.15807 429.26286,-24.629316"
       id="path3819"
       inkscape:connector-curvature="0" />
    <path
       style="fill:none;stroke:#0d112f;stroke-width:14.5;stroke-linecap:butt;stroke-linejoin:miter;stroke-miterlimit:4;stroke-opacity:1;stroke-dasharray:none"
       d="m 740.85809,734.78548 c -1.06428,-23.2752 43.30033,-145.74257 59.66997,-166.86469"
       id="path3775"
       inkscape:connector-curvature="0"
       sodipodi:nodetypes="cc" />
    <path
       style="fill:#7ea6ff;fill-opacity:1;stroke:none"
       d="m 784.15842,486.07261 c 102.88953,-13.75591 161.32348,-83.8725 167.03714,-154.58746 5.7835,-71.57931 -22.34411,-138.01787 -85.71701,-150.62707 -47.0623,1.75111 -84.67728,47.81914 -106.73828,111.18093 -21.37973,61.40509 1.30316,144.01732 25.41815,194.0336 z"
       id="path2995"
       inkscape:connector-curvature="0"
       sodipodi:nodetypes="cscsc" />
    <path
       style="fill:#000000;stroke:none"
       d="m 785.23858,479.16363 c 35.77446,-99.69506 121.95504,-136.01154 136.66064,-144.50182 3.27608,-1.89145 19.16103,-2.45469 27.0707,-2.37156 28.29312,0.29738 55.01618,2.16815 77.47838,-49.52961 -3.8697,47.78288 -43.32261,68.20557 -63.39338,67.95693 -46.48303,-0.57584 -66.81128,19.99395 -79.61484,27.63084 -11.64218,6.94417 -54.26236,39.45089 -98.2015,100.81522 z"
       id="path3777"
       inkscape:connector-curvature="0"
       sodipodi:nodetypes="csscssc" />
    <path
       style="fill:#000000;stroke:none"
       d="m 926.35281,335.58851 c 18.60832,-35.4043 18.19778,-87.17973 18.32318,-87.17973 -9.98116,50.39972 -18.35636,65.60467 -25.90778,79.94425 -6.27982,11.9249 -15.15652,16.16007 -15.15652,16.16007 8.30861,3.52739 16.4523,1.96796 22.74112,-8.92459 z"
       id="path3779"
       inkscape:connector-curvature="0"
       sodipodi:nodetypes="ccscc" />
    <path
       style="fill:#0d112f;fill-opacity:1;stroke:none"
       d="m 687.97056,525.83735 c 0,0 5.70142,21.92654 -1.49356,28.00422 -8.89528,7.51394 -21.77724,-6.97933 -21.6566,-7.0944 16.44281,4.4751 22.10191,-4.52778 23.15016,-20.90982 z"
       id="path2999"
       inkscape:connector-curvature="0"
       sodipodi:nodetypes="cscc" />
    <path
       style="fill:#0d112f;fill-opacity:1;stroke:none"
       d="m 639.61659,547.86734 c 0,0 1.12017,16.24245 -9.89483,16.24245 -11.01499,0 -12.88194,-16.24245 -12.88194,-16.24245 5.92397,8.13289 15.75084,12.89643 22.77677,0 z"
       id="path3001"
       inkscape:connector-curvature="0"
       sodipodi:nodetypes="cscc" />
    <path
       style="fill:#0d112f;fill-opacity:1;stroke:none"
       d="m 728.48334,548.24073 c -4.37518,17.09337 -9.6635,48.57966 -57.68871,48.72736 4.96337,3.20475 5.71544,8.35316 22.77678,5.97423 25.66406,-5.24911 36.51152,-28.40319 34.91193,-54.70159 z"
       id="path3003"
       inkscape:connector-curvature="0"
       sodipodi:nodetypes="cccc" />
    <path
       style="fill:none;stroke:#0d112f;stroke-width:14.5;stroke-linecap:butt;stroke-linejoin:miter;stroke-miterlimit:4;stroke-opacity:1;stroke-dasharray:none"
       d="M 625.42778,497.45973 C 598.74525,474.72956 571.72034,413.00093 566.43221,376.48146"
       id="path3005"
       inkscape:connector-curvature="0"
       sodipodi:nodetypes="cc" />
    <path
       style="fill:#000000;stroke:none"
       d="m 992.73928,250.82508 c -15.13752,66.60808 -33.63554,71.81441 -48.77306,83.85653 -1.36403,4.63976 17.15501,14.00282 23.42652,-2.5364 16.9701,-24.3954 23.83165,-52.00716 25.34654,-81.32013 z"
       id="path3781"
       inkscape:connector-curvature="0"
       sodipodi:nodetypes="cccc" />
    <path
       style="fill:#000000;stroke:none"
       d="m 792.35575,476.25833 c 0,0 23.04791,-28.15433 60.17298,-34.36485 -9.52278,16.56138 -60.17298,34.36485 -60.17298,34.36485 z"
       id="path3783"
       inkscape:connector-curvature="0"
       sodipodi:nodetypes="ccc" />
    <path
       style="fill:#020202;fill-opacity:1;stroke:#7e73e5;stroke-width:14.5;stroke-linecap:butt;stroke-linejoin:miter;stroke-miterlimit:4;stroke-opacity:1;stroke-dasharray:none"
       d="m 946.91633,727.84118 c 37.26933,-32.81187 75.02827,-53.51632 116.47887,-36.2188 0,0 1.8857,13.44203 15.3278,25.76389 l -33.6051,13.81542"
       id="path3787"
       inkscape:connector-curvature="0"
       sodipodi:nodetypes="cccc" />
    <path
       style="fill:#7e73e5;fill-opacity:1;stroke:none"
       d="m 739.53796,698.08581 c 0,0 28.25082,33.53135 42.24422,39.86799 l -55.44554,0.26402 z"
       id="path3789"
       inkscape:connector-curvature="0" />
    <path
       inkscape:connector-curvature="0"
       id="path3821"
       d="M 606.43503,61.931945 501.65034,-37.790677"
       style="fill:none;stroke:#0c102f;stroke-width:14.5;stroke-linecap:butt;stroke-linejoin:miter;stroke-miterlimit:4;stroke-opacity:1;stroke-dasharray:none"
       sodipodi:nodetypes="cc" />
    <path
       sodipodi:end="2.4320354"
       sodipodi:start="1.8934019"
       transform="matrix(1.6049257,-0.24564618,0.24412159,1.7258826,-587.90852,-143.31193)"
       d="m 686.28873,450.0671 a 21.655481,56.375839 0 0 1 -9.56331,-16.73881 l 16.42894,-36.72874 z"
       sodipodi:ry="56.375839"
       sodipodi:rx="21.655481"
       sodipodi:cy="396.59955"
       sodipodi:cx="693.15436"
       id="path3028"
       style="fill:#6df9e3;fill-opacity:1;stroke:none"
       sodipodi:type="arc" />
    <path
       sodipodi:type="arc"
       style="fill:#9bffff;fill-opacity:1;stroke:none"
       id="path3026"
       sodipodi:cx="693.15436"
       sodipodi:cy="396.59955"
       sodipodi:rx="21.655481"
       sodipodi:ry="56.375839"
       d="m 691.07583,452.71511 a 21.655481,56.375839 0 0 1 -8.65957,-7.15865 l 10.7381,-48.95691 z"
       transform="matrix(1.6049257,-0.24564618,0.24412159,1.7258826,-587.90852,-143.31193)"
       sodipodi:start="1.6669261"
       sodipodi:end="2.0896216" />
    <path
       sodipodi:type="arc"
       style="fill:#000000;stroke:none"
       id="path3844"
       sodipodi:cx="693.15436"
       sodipodi:cy="396.59955"
       sodipodi:rx="21.655481"
       sodipodi:ry="56.375839"
       d="m 714.80984,396.59955 a 21.655481,56.375839 0 1 1 -43.31096,0 21.655481,56.375839 0 1 1 43.31096,0 z"
       transform="matrix(0.93369981,-0.21021178,0.21402877,1.1004692,-107.3686,104.84101)"
       inkscape:transform-center-y="-62.039879"
       inkscape:transform-center-x="12.06605"
       clip-path="url(#clipPath3042)" />
    <path
       style="fill:#0d112f;fill-opacity:1;stroke:none"
       d="m 640.73676,439.21093 c 0,0 -9.33474,67.95693 -44.43338,95.96116 -1.58551,1.79914 -2.17134,4.06481 -1.12017,7.0944 0,0 44.05999,86.25303 137.40742,78.41184 l 10.08152,-3.73389 c 16.32771,-16.12411 39.71559,-28.76494 65.71659,-44.43338 35.82018,-21.58557 84.75947,-26.88406 111.27014,-44.43338 26.51067,-17.54931 50.40761,-39.57931 70.94405,-91.85387 -52.78115,75.72338 -88.68874,88.39665 -120.37191,95.78939 -31.68316,7.39274 -104.55445,40.66007 -137.82178,73.92739 -42.02952,2.65596 -92.02204,-13.50879 -120.42349,-65.91444 42.56642,-48.16727 28.75101,-100.81522 28.75101,-100.81522 z"
       id="path2997"
       inkscape:connector-curvature="0"
       sodipodi:nodetypes="cccccsscsccc" />
    <path
       sodipodi:type="arc"
       style="fill:#ffffff;stroke:none"
       id="path3852"
       sodipodi:cx="601.07385"
       sodipodi:cy="358.56824"
       sodipodi:rx="7.4272933"
       sodipodi:ry="33.020134"
       d="m 608.50115,358.56824 a 7.4272933,33.020134 0 1 1 -14.85459,0 7.4272933,33.020134 0 1 1 14.85459,0 z"
       transform="matrix(1.0963855,0,0,1,-57.934827,0)" />
    <path
       style="fill:#ffffff;stroke:none"
       d="m 614.02811,377.42496 c 5.44172,-0.12656 6.07448,23.66514 1.77173,24.8041 -4.30275,1.13896 -6.83379,-24.0448 -1.77173,-24.8041 z"
       id="path3848"
       inkscape:connector-curvature="0"
       sodipodi:nodetypes="csc" />
    <path
       style="fill:#000000;stroke:none"
       d="m 637.13647,381.74497 c -0.35795,-1.43177 -28.27741,-91.99106 -54.04922,-115.97316 -0.8039,-7.23643 3.3909,-7.80791 8.23266,-7.51678 0,0 36.15213,66.21925 45.81656,123.48994 z"
       id="path3854"
       inkscape:connector-curvature="0"
       sodipodi:nodetypes="cccc" />
    <path
       style="fill:#225ade;fill-opacity:1;stroke:#9c5dff;stroke-width:14.5;stroke-linecap:butt;stroke-linejoin:miter;stroke-miterlimit:16.20000076;stroke-opacity:1;stroke-dasharray:none"
       d="M 875.52573,69.261745 C 815.3915,148.00895 676.51007,193.8255 652.88591,207.42729 c -23.62416,13.60179 -88.1605,45.16824 -94.49665,99.50783 -6.37421,54.66602 36.04751,63.03961 45.45862,68.36689 C 525.46631,383.84619 485.15579,350.3206 463.89262,300.49217 435.99904,235.12595 490.38032,120.08949 605.63758,54.944071 723.91843,-11.910327 903.44519,21.297539 903.44519,21.297539 z"
       id="path3817"
       inkscape:connector-curvature="0"
       sodipodi:nodetypes="csscsscc" />
    <g
       id="g3829">
      <path
         inkscape:connector-curvature="0"
         id="path3815"
         d="m 879.82103,112.93065 c 0,0 -20.04474,-141.029084 40.08949,-151.767339 60.13422,-10.738255 119.55258,170.380309 99.50778,229.082769 -20.0447,58.70247 -139.59727,-77.31543 -139.59727,-77.31543 z"
         style="fill:#374493;fill-opacity:1;stroke:none" />
      <path
         sodipodi:nodetypes="cscsc"
         inkscape:connector-curvature="0"
         id="path3811"
         d="M 1018.9931,192.53314 C 1018.0875,60.838989 969.03044,-15.024683 926.35734,-27.666554 875.37419,-42.77027 880.29258,113.05877 880.29258,113.05877 851.43882,46.239551 873.90829,-51.750066 925.34493,-45.38377 c 53.39648,6.608865 126.84447,142.761698 93.64817,237.91691 z"
         style="fill:#07122a;fill-opacity:1;stroke:none" />
      <path
         sodipodi:nodetypes="ccc"
         inkscape:connector-curvature="0"
         id="path3813"
         d="M 923.84788,4.4742722 C 965.72707,30.961968 972.52797,49.574943 975.03356,113.28859 967.11467,69.017019 954.48828,28.864516 923.84788,4.4742722 z"
         style="fill:#07122a;fill-opacity:1;stroke:none" />
    </g>
    <rect
       style="fill:#ffffff;fill-opacity:1;stroke:none"
       id="rect3054"
       width="1663.6194"
       height="96.568672"
       x="-105.85323"
       y="720" />
    <rect
       style="fill:#ffffff;fill-opacity:1;stroke:none"
       id="rect3058"
       width="1508.3859"
       height="106.06046"
       x="-124.74796"
       y="-106.19865" />
    <g
       id="g3861">
      <path
         inkscape:connector-curvature="0"
         id="path3855"
         d="m 358.375,550.25 c 5.75,1.25 11.625,5.75 12.75,6.625 1.125,0.875 -6.125,-1.375 -12.75,-6.625 z"
         style="fill:#ffffff;fill-rule:evenodd;stroke:none" />
      <path
         style="fill:#ffffff;fill-rule:evenodd;stroke:none"
         d="m 368.21266,547.22143 c -1.25,5.75 -5.75,11.625 -6.625,12.75 -0.875,1.125 1.375,-6.125 6.625,-12.75 z"
         id="path3859"
         inkscape:connector-curvature="0" />
    </g>
    <g
       id="g3865"
       transform="translate(111.375,6.5)">
      <path
         style="fill:#ffffff;fill-rule:evenodd;stroke:none"
         d="m 358.375,550.25 c 5.75,1.25 11.625,5.75 12.75,6.625 1.125,0.875 -6.125,-1.375 -12.75,-6.625 z"
         id="path3867"
         inkscape:connector-curvature="0" />
      <path
         inkscape:connector-curvature="0"
         id="path3869"
         d="m 368.21266,547.22143 c -1.25,5.75 -5.75,11.625 -6.625,12.75 -0.875,1.125 1.375,-6.125 6.625,-12.75 z"
         style="fill:#ffffff;fill-rule:evenodd;stroke:none" />
    </g>
    <g
       transform="matrix(0.75268734,0,0,0.75268734,165.18067,161.81056)"
       id="g3871">
      <path
         inkscape:connector-curvature="0"
         id="path3873"
         d="m 358.375,550.25 c 5.75,1.25 11.625,5.75 12.75,6.625 1.125,0.875 -6.125,-1.375 -12.75,-6.625 z"
         style="fill:#ffffff;fill-rule:evenodd;stroke:none" />
      <path
         style="fill:#ffffff;fill-rule:evenodd;stroke:none"
         d="m 368.21266,547.22143 c -1.25,5.75 -5.75,11.625 -6.625,12.75 -0.875,1.125 1.375,-6.125 6.625,-12.75 z"
         id="path3875"
         inkscape:connector-curvature="0" />
    </g>
    <g
       id="g3877"
       transform="matrix(0.5972416,0,0,0.5972416,168.50198,169.0314)">
      <path
         style="fill:#ffffff;fill-rule:evenodd;stroke:none"
         d="m 358.375,550.25 c 5.75,1.25 11.625,5.75 12.75,6.625 1.125,0.875 -6.125,-1.375 -12.75,-6.625 z"
         id="path3879"
         inkscape:connector-curvature="0" />
      <path
         inkscape:connector-curvature="0"
         id="path3881"
         d="m 368.21266,547.22143 c -1.25,5.75 -5.75,11.625 -6.625,12.75 -0.875,1.125 1.375,-6.125 6.625,-12.75 z"
         style="fill:#ffffff;fill-rule:evenodd;stroke:none" />
    </g>
    <g
       transform="matrix(0.47358527,0,0,0.47358527,137.24528,203.90672)"
       id="g3883">
      <path
         inkscape:connector-curvature="0"
         id="path3885"
         d="m 358.375,550.25 c 5.75,1.25 11.625,5.75 12.75,6.625 1.125,0.875 -6.125,-1.375 -12.75,-6.625 z"
         style="fill:#ffffff;fill-rule:evenodd;stroke:none" />
      <path
         style="fill:#ffffff;fill-rule:evenodd;stroke:none"
         d="m 368.21266,547.22143 c -1.25,5.75 -5.75,11.625 -6.625,12.75 -0.875,1.125 1.375,-6.125 6.625,-12.75 z"
         id="path3887"
         inkscape:connector-curvature="0" />
    </g>
    <g
       id="g3889"
       transform="matrix(1.4159751,0,0,1.4159751,-199.10194,-396.32277)"
       style="fill:#b2faff;fill-opacity:1">
      <path
         style="fill:#b2faff;fill-opacity:1;fill-rule:evenodd;stroke:none"
         d="m 358.375,550.25 c 5.75,1.25 11.625,5.75 12.75,6.625 1.125,0.875 -6.125,-1.375 -12.75,-6.625 z"
         id="path3891"
         inkscape:connector-curvature="0" />
      <path
         inkscape:connector-curvature="0"
         id="path3893"
         d="m 368.21266,547.22143 c -1.25,5.75 -5.75,11.625 -6.625,12.75 -0.875,1.125 1.375,-6.125 6.625,-12.75 z"
         style="fill:#b2faff;fill-opacity:1;fill-rule:evenodd;stroke:none" />
    </g>
    <g
       style="fill:#b2faff;fill-opacity:1"
       transform="matrix(1.4159751,0,0,1.4159751,-25.153672,-374.04891)"
       id="g3895">
      <path
         inkscape:connector-curvature="0"
         id="path3897"
         d="m 358.375,550.25 c 5.75,1.25 11.625,5.75 12.75,6.625 1.125,0.875 -6.125,-1.375 -12.75,-6.625 z"
         style="fill:#b2faff;fill-opacity:1;fill-rule:evenodd;stroke:none" />
      <path
         style="fill:#b2faff;fill-opacity:1;fill-rule:evenodd;stroke:none"
         d="m 368.21266,547.22143 c -1.25,5.75 -5.75,11.625 -6.625,12.75 -0.875,1.125 1.375,-6.125 6.625,-12.75 z"
         id="path3899"
         inkscape:connector-curvature="0" />
    </g>
    <g
       id="g3901"
       transform="matrix(0.59159956,0,0,0.59159956,129.56767,84.845224)"
       style="fill:#b2faff;fill-opacity:1">
      <path
         style="fill:#b2faff;fill-opacity:1;fill-rule:evenodd;stroke:none"
         d="m 358.375,550.25 c 5.75,1.25 11.625,5.75 12.75,6.625 1.125,0.875 -6.125,-1.375 -12.75,-6.625 z"
         id="path3903"
         inkscape:connector-curvature="0" />
      <path
         inkscape:connector-curvature="0"
         id="path3905"
         d="m 368.21266,547.22143 c -1.25,5.75 -5.75,11.625 -6.625,12.75 -0.875,1.125 1.375,-6.125 6.625,-12.75 z"
         style="fill:#b2faff;fill-opacity:1;fill-rule:evenodd;stroke:none" />
    </g>
    <g
       id="g3907"
       transform="matrix(-0.34394498,0.66950734,-0.66950734,-0.34394498,982.41682,560.22432)">
      <path
         style="fill:#ffffff;fill-rule:evenodd;stroke:none"
         d="m 358.375,550.25 c 5.75,1.25 11.625,5.75 12.75,6.625 1.125,0.875 -6.125,-1.375 -12.75,-6.625 z"
         id="path3909"
         inkscape:connector-curvature="0" />
      <path
         inkscape:connector-curvature="0"
         id="path3911"
         d="m 368.21266,547.22143 c -1.25,5.75 -5.75,11.625 -6.625,12.75 -0.875,1.125 1.375,-6.125 6.625,-12.75 z"
         style="fill:#ffffff;fill-rule:evenodd;stroke:none" />
    </g>
    <g
       id="g3913"
       transform="matrix(1.4159751,0,0,1.4159751,77.846328,-278.04891)"
       style="fill:#b2faff;fill-opacity:1">
      <path
         style="fill:#b2faff;fill-opacity:1;fill-rule:evenodd;stroke:none"
         d="m 358.375,550.25 c 5.75,1.25 11.625,5.75 12.75,6.625 1.125,0.875 -6.125,-1.375 -12.75,-6.625 z"
         id="path3915"
         inkscape:connector-curvature="0" />
      <path
         inkscape:connector-curvature="0"
         id="path3917"
         d="m 368.21266,547.22143 c -1.25,5.75 -5.75,11.625 -6.625,12.75 -0.875,1.125 1.375,-6.125 6.625,-12.75 z"
         style="fill:#b2faff;fill-opacity:1;fill-rule:evenodd;stroke:none" />
    </g>
    <g
       style="fill:#b2faff;fill-opacity:1"
       transform="matrix(1.1740942,-0.0894054,0.0894054,1.1740942,93.086296,-16.015089)"
       id="g3919">
      <path
         inkscape:connector-curvature="0"
         id="path3921"
         d="m 358.375,550.25 c 5.75,1.25 11.625,5.75 12.75,6.625 1.125,0.875 -6.125,-1.375 -12.75,-6.625 z"
         style="fill:#b2faff;fill-opacity:1;fill-rule:evenodd;stroke:none" />
      <path
         style="fill:#b2faff;fill-opacity:1;fill-rule:evenodd;stroke:none"
         d="m 368.21266,547.22143 c -1.25,5.75 -5.75,11.625 -6.625,12.75 -0.875,1.125 1.375,-6.125 6.625,-12.75 z"
         id="path3923"
         inkscape:connector-curvature="0" />
    </g>
    <g
       id="g3925"
       transform="matrix(0.59282177,-0.04514243,0.04514243,0.59282177,320.27542,236.80431)"
       style="fill:#b2faff;fill-opacity:1">
      <path
         style="fill:#b2faff;fill-opacity:1;fill-rule:evenodd;stroke:none"
         d="m 358.375,550.25 c 5.75,1.25 11.625,5.75 12.75,6.625 1.125,0.875 -6.125,-1.375 -12.75,-6.625 z"
         id="path3927"
         inkscape:connector-curvature="0" />
      <path
         inkscape:connector-curvature="0"
         id="path3929"
         d="m 368.21266,547.22143 c -1.25,5.75 -5.75,11.625 -6.625,12.75 -0.875,1.125 1.375,-6.125 6.625,-12.75 z"
         style="fill:#b2faff;fill-opacity:1;fill-rule:evenodd;stroke:none" />
    </g>
    <g
       style="fill:#b2faff;fill-opacity:1"
       transform="matrix(1.4159751,0,0,1.4159751,48.147843,-80.059011)"
       id="g3931">
      <path
         inkscape:connector-curvature="0"
         id="path3933"
         d="m 358.375,550.25 c 5.75,1.25 11.625,5.75 12.75,6.625 1.125,0.875 -6.125,-1.375 -12.75,-6.625 z"
         style="fill:#b2faff;fill-opacity:1;fill-rule:evenodd;stroke:none" />
      <path
         style="fill:#b2faff;fill-opacity:1;fill-rule:evenodd;stroke:none"
         d="m 368.21266,547.22143 c -1.25,5.75 -5.75,11.625 -6.625,12.75 -0.875,1.125 1.375,-6.125 6.625,-12.75 z"
         id="path3935"
         inkscape:connector-curvature="0" />
    </g>
    <g
       style="fill:#b2faff;fill-opacity:1"
       transform="matrix(1.4159751,0,0,1.4159751,-227.6238,-180.46817)"
       id="g3937">
      <path
         inkscape:connector-curvature="0"
         id="path3939"
         d="m 358.375,550.25 c 5.75,1.25 11.625,5.75 12.75,6.625 1.125,0.875 -6.125,-1.375 -12.75,-6.625 z"
         style="fill:#b2faff;fill-opacity:1;fill-rule:evenodd;stroke:none" />
      <path
         style="fill:#b2faff;fill-opacity:1;fill-rule:evenodd;stroke:none"
         d="m 368.21266,547.22143 c -1.25,5.75 -5.75,11.625 -6.625,12.75 -0.875,1.125 1.375,-6.125 6.625,-12.75 z"
         id="path3941"
         inkscape:connector-curvature="0" />
    </g>
    <g
       transform="matrix(-0.34394498,0.66950734,-0.66950734,-0.34394498,1043.4168,602.72432)"
       id="g3943">
      <path
         inkscape:connector-curvature="0"
         id="path3945"
         d="m 358.375,550.25 c 5.75,1.25 11.625,5.75 12.75,6.625 1.125,0.875 -6.125,-1.375 -12.75,-6.625 z"
         style="fill:#ffffff;fill-rule:evenodd;stroke:none" />
      <path
         style="fill:#ffffff;fill-rule:evenodd;stroke:none"
         d="m 368.21266,547.22143 c -1.25,5.75 -5.75,11.625 -6.625,12.75 -0.875,1.125 1.375,-6.125 6.625,-12.75 z"
         id="path3947"
         inkscape:connector-curvature="0" />
    </g>
    <g
       id="g3949"
       transform="matrix(-0.34394498,0.66950734,-0.66950734,-0.34394498,1082.9168,594.22432)">
      <path
         style="fill:#ffffff;fill-rule:evenodd;stroke:none"
         d="m 358.375,550.25 c 5.75,1.25 11.625,5.75 12.75,6.625 1.125,0.875 -6.125,-1.375 -12.75,-6.625 z"
         id="path3951"
         inkscape:connector-curvature="0" />
      <path
         inkscape:connector-curvature="0"
         id="path3953"
         d="m 368.21266,547.22143 c -1.25,5.75 -5.75,11.625 -6.625,12.75 -0.875,1.125 1.375,-6.125 6.625,-12.75 z"
         style="fill:#ffffff;fill-rule:evenodd;stroke:none" />
    </g>
  </g>
</svg>
