<?xml version="1.0" encoding="utf-8"?>
<!-- Generator: Adobe Illustrator 15.1.0, SVG Export Plug-In . SVG Version: 6.00 Build 0)  -->
<!DOCTYPE svg PUBLIC "-//W3C//DTD SVG 1.1//EN" "http://www.w3.org/Graphics/SVG/1.1/DTD/svg11.dtd">
<svg version="1.1" id="Layer_1" xmlns="http://www.w3.org/2000/svg" xmlns:xlink="http://www.w3.org/1999/xlink" x="0px" y="0px"
	 width="1920px" height="1080px" viewBox="0 0 1920 1080" enable-background="new 0 0 1920 1080" xml:space="preserve">
<rect x="18.077" y="19.641" fill="#DEB956" width="216.667" height="171.795"/>
<rect x="578.333" y="19.641" fill="#F08821" width="216.667" height="171.795"/>
<rect x="819.359" y="19.641" fill="#D76913" width="216.667" height="171.795"/>
<rect x="1117.844" y="19.641" fill="#512025" width="216.667" height="171.795"/>
<rect x="1117.844" y="205.632" fill="#4D3743" width="216.667" height="171.795"/>
<rect x="1117.844" y="395.699" fill="#462E1B" width="216.667" height="171.795"/>
<rect x="1364.114" y="19.641" fill="#863F40" width="45.111" height="171.795"/>
<rect x="18.077" y="204.256" fill="#F37721" width="216.667" height="171.795"/>
<rect x="255.256" y="204.256" fill="#BE2726" width="216.667" height="171.795"/>
<rect x="579.616" y="204.256" fill="#D59E34" width="216.667" height="171.795"/>
<rect x="579.616" y="391.128" fill="#FFED87" width="216.667" height="171.795"/>
<rect x="820.642" y="204.256" fill="#602F22" width="216.667" height="171.795"/>
<rect x="18.077" y="387.589" fill="#BC8C2D" width="216.667" height="171.795"/>
<rect x="18.077" y="577.333" fill="#DD9E27" width="216.667" height="171.796"/>
<rect x="18.077" y="759.384" fill="#C43A29" width="216.667" height="171.796"/>
</svg>
