<?xml version="1.0" encoding="UTF-8" standalone="no"?>
<!-- Created with Inkscape (http://www.inkscape.org/) -->

<svg
   xmlns:dc="http://purl.org/dc/elements/1.1/"
   xmlns:cc="http://creativecommons.org/ns#"
   xmlns:rdf="http://www.w3.org/1999/02/22-rdf-syntax-ns#"
   xmlns:svg="http://www.w3.org/2000/svg"
   xmlns="http://www.w3.org/2000/svg"
   xmlns:xlink="http://www.w3.org/1999/xlink"
   xmlns:sodipodi="http://sodipodi.sourceforge.net/DTD/sodipodi-0.dtd"
   xmlns:inkscape="http://www.inkscape.org/namespaces/inkscape"
   id="svg2"
   version="1.1"
   inkscape:version="0.48.5 r10040"
   width="1024"
   height="1024"
   sodipodi:docname="ducttape.svg"
   enable-background="new"
   inkscape:export-filename="/home/lapsio/Documents/Projects/blends/garage/tex/ducttape.png"
   inkscape:export-xdpi="90"
   inkscape:export-ydpi="90">
  <metadata
     id="metadata8">
    <rdf:RDF>
      <cc:Work
         rdf:about="">
        <dc:format>image/svg+xml</dc:format>
        <dc:type
           rdf:resource="http://purl.org/dc/dcmitype/StillImage" />
        <dc:title></dc:title>
      </cc:Work>
    </rdf:RDF>
  </metadata>
  <defs
     id="defs6">
    <linearGradient
       inkscape:collect="always"
       id="linearGradient3802">
      <stop
         style="stop-color:#deca88;stop-opacity:1;"
         offset="0"
         id="stop3804" />
      <stop
         style="stop-color:#ffffff;stop-opacity:1"
         offset="1"
         id="stop3806" />
    </linearGradient>
    <linearGradient
       inkscape:collect="always"
       xlink:href="#linearGradient3802"
       id="linearGradient3808"
       x1="1602.7119"
       y1="544.37567"
       x2="1602.7119"
       y2="404.71204"
       gradientUnits="userSpaceOnUse"
       gradientTransform="matrix(1.7260937,0,0,1.107901,-2002.1108,-21.046216)" />
  </defs>
  <sodipodi:namedview
     pagecolor="#ffffff"
     bordercolor="#666666"
     borderopacity="1"
     objecttolerance="10"
     gridtolerance="10"
     guidetolerance="10"
     inkscape:pageopacity="0"
     inkscape:pageshadow="2"
     inkscape:window-width="1920"
     inkscape:window-height="1002"
     id="namedview4"
     showgrid="false"
     inkscape:zoom="0.4609375"
     inkscape:cx="889.64689"
     inkscape:cy="607.51105"
     inkscape:window-x="-4"
     inkscape:window-y="1077"
     inkscape:window-maximized="1"
     inkscape:current-layer="svg2" />
  <path
     sodipodi:type="arc"
     style="fill:#deca88;fill-opacity:1;fill-rule:evenodd;stroke:none"
     id="path2985"
     sodipodi:cx="207.5"
     sodipodi:cy="207.06693"
     sodipodi:rx="207.5"
     sodipodi:ry="207.5"
     d="m 415,207.06693 a 207.5,207.5 0 1 1 -415,0 207.5,207.5 0 1 1 415,0 z"
     transform="matrix(1.3733615,0,0,1.3733613,96.161375,201.30949)" />
  <path
     sodipodi:type="arc"
     style="fill:#77551d;fill-opacity:1;stroke:none"
     id="path3781"
     sodipodi:cx="227.14285"
     sodipodi:cy="210.91112"
     sodipodi:rx="86.428574"
     sodipodi:ry="86.428574"
     d="m 313.57143,210.91112 a 86.428574,86.428574 0 1 1 -172.85715,0 86.428574,86.428574 0 1 1 172.85715,0 z"
     transform="matrix(1.0341561,0,0,1.0341561,146.23276,267.57217)" />
  <path
     style="fill:#f4f4d5;fill-opacity:0.99656863;stroke:none"
     d="m 188.68465,286.55736 c -58.84253,67.95108 -68.38818,121.16159 -64.59836,130.31168 1.8445,4.45341 15.16925,-38.04766 29.33012,-52.59758 11.90556,-12.2326 -16.29743,41.58162 -14.30724,86.75185 0.6428,14.59156 9.75795,-22.33046 23.60709,-37.56973 9.57948,-10.54099 -1.96533,18.87213 4.29211,41.66825 4.22772,15.40071 9.44311,-10.87625 12.87683,-17.07714 11.77748,-21.26945 2.63799,9.37462 9.29967,28.68959 5.17897,15.01577 3.49966,-29.26835 25.75349,-58.06229 9.48782,-12.27627 -6.34909,27.01988 -0.71546,45.76677 1.91199,6.36207 8.69796,-10.34068 13.59212,-15.0279 14.79849,-14.17291 -0.37491,12.06922 9.29985,36.20353 4.30591,10.7414 6.39328,-6.39069 10.37279,-13.32014 9.48523,-16.51608 3.68503,1.69708 8.22673,14.00326 2.99218,8.1074 2.78126,-10.7586 13.94977,-22.20031 7.37422,-7.55478 -0.41996,2.61172 6.08069,24.93262 1.83431,6.29851 -0.35023,-9.6967 8.22673,-22.02952 4.36115,-6.27095 -2.5541,6.12135 2.72136,11.99097 1.43266,1.5942 -5.57563,2.08419 8.2471,-22.29226 -13.1007,34.27748 -9.0109,70.89885 12.51901,97.85204 -26.17655,-25.68928 -19.14911,-34.54005 -21.9043,-30.73744 -6.97462,9.62537 -3.25662,18.60114 -7.57755,15.12242 -8.3719,-6.74 -6.77215,-20.78796 -9.12102,-18.78485 -6.65927,5.67914 -4.05995,24.25137 -10.01514,19.46796 -8.40573,-6.75178 -8.75026,-18.05812 -10.37279,-16.39406 -7.67266,7.86848 -5.40716,24.70409 -8.58455,21.17568 -9.74139,-10.81748 -11.75125,-34.50874 -16.09583,-28.00654 -8.56902,12.82454 -8.82759,33.95098 -13.23448,25.27419 -6.56951,-12.93601 -2.14588,-36.74358 -6.08051,-26.98189 -15.0303,37.28889 -7.22076,69.80188 -13.94977,58.06229 -11.84928,-20.67275 -9.67786,-60.14049 -14.30724,-45.42523 -7.98491,25.38009 -4.2134,58.09396 -10.37313,46.10831 -10.92635,-21.26121 -4.43417,-75.41771 -12.1612,-59.08693 -26.72528,56.48342 16.04301,114.09631 1.07312,96.31508 -28.82025,-34.23242 -27.78338,-92.48765 -28.46674,-75.62035 -3.74442,92.43307 54.06212,151.48403 54.06212,151.48403 C 55.4934,541.0031 96.521956,372.30272 188.68465,286.55736 z"
     id="path3763"
     inkscape:connector-curvature="0"
     sodipodi:nodetypes="csssssssssssssssssccssssssssssssssscc" />
  <g
     inkscape:groupmode="layer"
     id="layer1"
     inkscape:label="Layer" />
  <g
     inkscape:groupmode="layer"
     id="layer3"
     inkscape:label="Layer#1" />
  <path
     sodipodi:nodetypes="csssssssssssssssssccssssssssssssssscc"
     inkscape:connector-curvature="0"
     id="path3796"
     d="m 572.97714,286.55736 c 58.84253,67.95108 68.38817,121.16159 64.59836,130.31168 -1.8445,4.45341 -15.16925,-38.04766 -29.33013,-52.59758 -11.90555,-12.2326 16.29743,41.58162 14.30725,86.75185 -0.6428,14.59156 -9.75795,-22.33046 -23.60709,-37.56973 -9.57948,-10.54099 1.96533,18.87213 -4.29211,41.66825 -4.22772,15.40071 -9.44311,-10.87625 -12.87683,-17.07714 -11.77748,-21.26945 -2.63799,9.37462 -9.29967,28.68959 -5.17898,15.01577 -3.49966,-29.26835 -25.75349,-58.06229 -9.48782,-12.27627 6.34909,27.01988 0.71546,45.76677 -1.91199,6.36207 -8.69796,-10.34068 -13.59212,-15.0279 -14.79849,-14.17291 0.3749,12.06922 -9.29985,36.20353 -4.30591,10.7414 -6.39328,-6.39069 -10.37279,-13.32014 -9.48523,-16.51608 -3.68503,1.69708 -8.22673,14.00326 -2.99219,8.1074 -2.78126,-10.7586 -13.94977,-22.20031 -7.37422,-7.55478 0.41995,2.61172 -6.08069,24.93262 -1.83432,6.29851 0.35023,-9.6967 -8.22673,-22.02952 -4.36115,-6.27095 2.5541,6.12135 -2.72136,11.99097 -1.43266,1.5942 5.57563,2.08419 -8.2471,-22.29226 13.1007,34.27748 9.0109,70.89885 -12.51902,97.85204 26.17656,-25.68928 19.14911,-34.54005 21.90431,-30.73744 6.97462,9.62537 3.25662,18.60114 7.57755,15.12242 8.3719,-6.74 6.77215,-20.78796 9.12102,-18.78485 6.65927,5.67914 4.05995,24.25137 10.01514,19.46796 8.40573,-6.75178 8.75026,-18.05812 10.37279,-16.39406 7.67266,7.86848 5.40716,24.70409 8.58455,21.17568 9.74139,-10.81748 11.75125,-34.50874 16.09583,-28.00654 8.56902,12.82454 8.82758,33.95098 13.23447,25.27419 6.56952,-12.93601 2.14588,-36.74358 6.08051,-26.98189 15.03031,37.28889 7.22077,69.80188 13.94978,58.06229 11.84928,-20.67275 9.67786,-60.14049 14.30724,-45.42523 7.98491,25.38009 4.2134,58.09396 10.37313,46.10831 10.92635,-21.26121 4.43417,-75.41771 12.1612,-59.08693 26.72528,56.48342 -16.04301,114.09631 -1.07312,96.31508 28.82024,-34.23242 27.78338,-92.48765 28.46674,-75.62035 3.74442,92.43307 -54.06212,151.48403 -54.06212,151.48403 124.85664,-135.52062 83.82809,-304.221 -8.33461,-389.96636 z"
     style="fill:#f4f4d5;fill-opacity:0.99656863;stroke:none" />
  <rect
     style="color:#000000;fill:#deca88;fill-opacity:1;fill-rule:nonzero;stroke:none;stroke-width:4;marker:none;visibility:visible;display:inline;overflow:visible;enable-background:accumulate"
     id="rect3798"
     width="170.49345"
     height="573.27795"
     x="668.33154"
     y="201.26576"
     rx="0"
     ry="0" />
  <path
     style="fill:url(#linearGradient3808);fill-opacity:1;stroke:none"
     d="m 668.82884,531.17671 c 37.91555,-17.42597 52.86697,2.24731 78.6398,4.20628 35.57496,2.70402 90.80996,-19.22866 90.80996,-19.22866 l 0,-101.55134 c 0,0 -47.30256,27.68955 -77.70339,21.03135 -27.88228,-6.10659 -61.95226,-14.07461 -91.74637,-3.90583 z"
     id="path3800"
     inkscape:connector-curvature="0"
     sodipodi:nodetypes="csccscc" />
</svg>
